<?xml version="1.0" standalone="no"?>
<!DOCTYPE svg PUBLIC "-//W3C//DTD SVG 20010904//EN"
 "http://www.w3.org/TR/2001/REC-SVG-20010904/DTD/svg10.dtd">
<svg version="1.0" xmlns="http://www.w3.org/2000/svg"
 width="600.000000pt" height="304.000000pt" viewBox="0 0 600.000000 304.000000"
 preserveAspectRatio="xMidYMid meet">

<g transform="translate(0.000000,304.000000) scale(0.100000,-0.100000)"
fill="#000000" stroke="none">
<path d="M2413 2653 l-120 -207 -98 -27 c-186 -53 -457 -150 -588 -210 -25
-11 -26 -14 -12 -29 15 -16 21 -15 103 20 192 83 543 198 550 180 4 -11 -392
-689 -400 -684 -3 2 -23 33 -42 69 -20 35 -46 71 -59 80 -28 20 -91 19 -122
-1 -30 -20 -174 -270 -186 -324 -14 -61 -3 -97 62 -215 32 -59 59 -109 59
-113 0 -9 -174 -312 -180 -312 -3 0 -59 94 -124 208 -66 114 -175 303 -243
420 -68 117 -123 217 -123 222 0 26 337 243 519 335 61 30 111 59 111 64 0 5
-6 14 -14 20 -11 10 -40 -1 -138 -50 -154 -77 -272 -144 -411 -231 l-109 -68
-30 30 c-34 35 -92 41 -133 14 -25 -16 -119 -169 -173 -281 -17 -35 -54 -88
-83 -118 -69 -72 -131 -156 -169 -227 -31 -57 -70 -160 -70 -183 0 -17 222 47
231 66 4 8 15 41 24 74 17 60 72 175 84 175 3 0 33 -48 66 -107 33 -58 131
-228 217 -377 86 -149 152 -273 147 -275 -26 -9 -208 44 -287 84 -134 68 -212
156 -242 277 l-12 45 -81 -24 c-45 -13 -99 -28 -121 -34 l-39 -10 7 -47 c31
-230 290 -367 752 -398 l101 -6 39 -67 c33 -54 47 -68 80 -80 34 -12 44 -11
76 2 29 12 46 31 80 90 l43 75 125 16 c202 28 302 49 314 68 5 9 8 20 5 23 -4
3 -51 -1 -105 -9 -54 -9 -144 -18 -198 -22 l-100 -7 21 35 c11 19 67 116 123
214 57 99 108 184 114 191 8 9 41 -39 129 -192 65 -112 116 -209 112 -215 -3
-5 0 -10 7 -10 7 0 44 -54 82 -120 54 -92 77 -123 102 -135 83 -39 108 -17
245 223 l114 201 103 38 c77 28 102 42 102 55 0 23 -2 23 -83 -8 -37 -14 -71
-24 -74 -20 -3 3 86 162 197 353 112 191 320 548 463 793 143 245 266 455 273
467 14 22 15 22 66 6 104 -30 200 -85 273 -155 38 -38 73 -68 77 -68 21 0 228
85 228 94 0 5 -24 34 -54 62 -96 93 -228 146 -468 188 -21 4 -38 11 -38 15 0
5 34 68 75 140 41 73 75 134 75 137 0 2 -40 4 -89 4 -59 0 -92 -4 -99 -12 -11
-14 -172 -292 -231 -399 -20 -36 -234 -404 -476 -816 -332 -567 -443 -748
-451 -740 -7 7 -92 150 -189 319 l-177 308 263 456 c179 309 271 459 285 464
38 15 344 49 500 56 l152 6 43 45 44 45 -105 -7 c-136 -8 -382 -40 -506 -65
-54 -11 -100 -18 -102 -16 -2 2 37 73 86 158 49 84 94 163 101 176 l12 22 -94
0 -93 0 -121 -207z"/>
<path d="M5286 2080 c-140 -22 -272 -121 -315 -235 -44 -116 -25 -220 47 -267
56 -37 176 -84 285 -111 54 -14 107 -33 118 -43 64 -57 -43 -139 -148 -113
-48 13 -80 39 -89 75 l-6 24 -157 -2 -156 -3 -3 -42 c-12 -162 122 -260 370
-271 143 -6 226 11 341 70 132 69 189 151 195 283 3 75 1 83 -26 126 -39 60
-132 108 -269 139 -120 27 -190 56 -198 81 -11 32 4 57 41 69 68 23 163 -9
179 -60 6 -19 16 -20 162 -20 l156 0 -7 58 c-14 118 -67 180 -194 221 -74 25
-236 35 -326 21z"/>
<path d="M4330 2064 c-191 -41 -358 -192 -432 -390 -19 -48 -23 -80 -23 -174
0 -108 2 -119 31 -180 37 -79 82 -132 138 -165 136 -79 394 -70 510 19 l34 25
6 -39 6 -40 100 0 c95 0 100 1 105 23 13 56 85 462 85 478 0 18 -12 19 -223
19 l-223 0 -17 -88 c-25 -130 -28 -122 53 -122 39 0 70 -4 70 -9 0 -19 -73
-69 -116 -80 -98 -25 -172 -4 -209 59 -29 51 -27 195 4 264 58 129 138 193
231 184 62 -6 98 -30 119 -79 l16 -39 152 0 c172 0 170 -1 155 82 -17 88 -87
175 -180 222 -85 44 -266 58 -392 30z"/>
<path d="M3356 2038 c-7 -13 -121 -214 -251 -448 -131 -234 -241 -429 -246
-435 -5 -5 -9 -15 -9 -22 0 -10 35 -13 160 -13 l161 0 29 65 29 65 163 -2 163
-3 5 -60 5 -60 166 -3 166 -2 -12 62 c-7 35 -47 246 -91 471 l-78 407 -173 0
c-168 0 -173 -1 -187 -22z m160 -535 l6 -63 -96 0 -96 0 77 153 77 152 12 -90
c7 -49 16 -118 20 -152z"/>
<path d="M2885 908 c-2 -7 -11 -42 -20 -78 -9 -36 -18 -73 -21 -82 -4 -13 0
-18 15 -18 14 0 21 6 21 20 0 14 7 20 24 20 15 0 26 -7 29 -20 5 -18 37 -29
37 -12 0 6 -9 47 -35 160 -6 24 -42 31 -50 10z m34 -90 c1 -10 -6 -18 -15 -18
-11 0 -14 5 -10 16 3 9 6 25 7 37 0 21 1 21 9 2 5 -11 9 -28 9 -37z"/>
<path d="M2997 913 c-4 -3 -7 -46 -7 -95 0 -81 2 -88 20 -88 17 0 20 7 20 40
0 26 5 40 13 40 21 0 37 -22 37 -52 0 -22 5 -28 21 -28 12 0 17 4 14 11 -4 5
-7 44 -7 85 1 71 -1 76 -24 85 -29 10 -78 12 -87 2z m78 -53 c0 -18 -6 -26
-22 -28 -20 -3 -23 1 -23 28 0 27 3 31 23 28 16 -2 22 -10 22 -28z"/>
<path d="M3140 905 c0 -8 9 -15 20 -15 18 0 20 -7 20 -80 0 -64 3 -80 15 -80
12 0 15 16 15 80 0 73 2 80 20 80 11 0 20 7 20 15 0 12 -13 15 -55 15 -42 0
-55 -3 -55 -15z"/>
<path d="M3277 914 c-4 -4 -7 -47 -7 -96 0 -81 2 -88 20 -88 17 0 20 7 20 40
0 36 3 40 25 40 23 0 25 -4 25 -40 0 -29 4 -40 15 -40 12 0 15 17 15 95 0 78
-3 95 -15 95 -11 0 -15 -11 -15 -40 0 -36 -3 -40 -24 -40 -21 0 -25 5 -28 37
-3 35 -17 51 -31 37z"/>
<path d="M3456 908 c-11 -35 -36 -149 -36 -163 0 -22 27 -18 33 5 3 12 14 20
25 20 12 0 23 -9 27 -20 8 -25 35 -27 35 -2 -1 9 -9 51 -18 92 -15 63 -21 75
-40 78 -12 2 -24 -3 -26 -10z m34 -78 c0 -16 -4 -30 -10 -30 -5 0 -10 14 -10
30 0 17 5 30 10 30 6 0 10 -13 10 -30z"/>
<path d="M3652 904 c-19 -13 -22 -24 -22 -84 0 -63 2 -71 25 -86 15 -10 32
-13 42 -9 10 5 26 7 36 6 14 -2 17 6 17 43 0 44 -1 46 -30 46 -32 0 -40 -14
-15 -24 13 -4 14 -10 5 -26 -24 -44 -50 -18 -50 50 0 21 3 45 6 54 8 20 40 21
48 1 7 -19 36 -20 36 -1 0 17 -38 46 -60 46 -9 0 -26 -7 -38 -16z"/>
<path d="M3790 830 c0 -86 1 -91 24 -101 16 -8 34 -8 53 -2 28 10 28 10 31
102 2 72 0 92 -10 89 -9 -3 -15 -32 -18 -84 -4 -71 -7 -79 -25 -79 -18 0 -20
8 -23 83 -2 64 -6 82 -17 82 -12 0 -15 -18 -15 -90z"/>
<path d="M3930 905 c0 -8 9 -15 20 -15 18 0 20 -7 20 -80 0 -64 3 -80 15 -80
12 0 15 16 15 80 0 73 2 80 20 80 11 0 20 7 20 15 0 12 -13 15 -55 15 -42 0
-55 -3 -55 -15z"/>
<path d="M4095 908 c-2 -7 -11 -42 -20 -78 -9 -36 -18 -73 -21 -82 -4 -13 0
-18 15 -18 14 0 21 6 21 20 0 14 7 20 24 20 15 0 26 -7 29 -20 5 -18 37 -29
37 -12 0 6 -9 47 -35 160 -6 24 -42 31 -50 10z m34 -90 c1 -10 -6 -18 -15 -18
-11 0 -14 5 -10 16 3 9 6 25 7 37 0 21 1 21 9 2 5 -11 9 -28 9 -37z"/>
<path d="M4200 901 c0 -17 9 -68 26 -148 3 -14 12 -23 23 -23 21 0 31 19 31
60 0 49 17 42 24 -10 6 -44 10 -50 30 -50 21 0 24 7 38 88 15 82 12 112 -10
98 -5 -3 -13 -36 -17 -73 -8 -73 -16 -67 -29 19 -13 87 -40 74 -52 -26 -7 -65
-11 -62 -28 23 -11 53 -36 83 -36 42z"/>
<path d="M4446 911 c-3 -5 -13 -40 -21 -77 -9 -38 -18 -77 -21 -86 -4 -13 0
-18 15 -18 14 0 21 6 21 20 0 15 7 20 25 20 18 0 25 -5 25 -20 0 -13 7 -20 20
-20 24 0 24 -10 -1 99 -17 74 -24 91 -39 91 -10 0 -21 -4 -24 -9z m33 -93 c1
-10 -6 -18 -15 -18 -12 0 -15 6 -10 23 3 12 6 29 7 37 1 20 17 -18 18 -42z"/>
<path d="M4630 902 c-29 -24 -21 -53 26 -88 38 -29 46 -64 14 -64 -13 0 -20 7
-20 20 0 13 -7 20 -20 20 -11 0 -20 -7 -20 -15 0 -22 37 -55 60 -55 24 0 60
34 60 56 0 16 -55 74 -71 74 -5 0 -9 9 -9 20 0 23 28 27 36 5 8 -19 34 -20 34
-1 0 20 -28 46 -50 46 -10 0 -28 -8 -40 -18z"/>
<path d="M4760 825 l0 -95 45 0 c25 0 45 5 45 10 0 6 -13 10 -30 10 -27 0 -30
3 -30 30 0 27 3 30 30 30 20 0 30 5 30 15 0 10 -10 15 -30 15 -25 0 -30 4 -30
25 0 21 5 25 30 25 20 0 30 5 30 15 0 11 -12 15 -45 15 l-45 0 0 -95z"/>
<path d="M4928 838 c-2 -54 -7 -83 -15 -86 -8 -2 -13 5 -13 17 0 12 -6 21 -15
21 -9 0 -15 -9 -15 -25 0 -32 34 -51 66 -36 23 10 24 16 24 101 0 72 -3 90
-15 90 -11 0 -15 -18 -17 -82z"/>
<path d="M5026 912 c-2 -4 -11 -34 -19 -67 -30 -119 -29 -115 -7 -115 13 0 20
7 20 20 0 15 7 20 25 20 18 0 25 -5 25 -20 0 -14 7 -20 21 -20 17 0 20 4 15
23 -3 12 -13 55 -22 95 -13 57 -20 72 -34 72 -11 0 -21 -3 -24 -8z m33 -99 c1
-7 -6 -13 -15 -13 -12 0 -15 6 -10 23 3 12 6 29 7 37 1 15 16 -24 18 -47z"/>
<path d="M5137 914 c-4 -4 -7 -47 -7 -96 0 -81 2 -88 20 -88 17 0 20 7 20 40
0 36 3 40 25 40 23 0 25 -4 25 -40 0 -29 4 -40 15 -40 12 0 15 17 15 95 0 78
-3 95 -15 95 -11 0 -15 -11 -15 -40 0 -36 -3 -40 -24 -40 -21 0 -25 5 -28 37
-3 35 -17 51 -31 37z"/>
<path d="M5275 910 c-3 -5 5 -14 19 -20 25 -9 26 -13 26 -85 0 -60 3 -75 15
-75 12 0 15 16 15 80 0 74 1 80 21 80 12 0 19 5 17 13 -6 15 -104 22 -113 7z"/>
<path d="M5417 913 c-4 -3 -7 -46 -7 -95 l0 -88 50 0 c28 0 50 5 50 10 0 6
-13 10 -30 10 -27 0 -30 3 -30 29 0 24 5 30 25 33 14 2 26 8 26 13 0 6 -12 11
-26 13 -19 3 -25 9 -25 28 0 20 5 24 30 24 20 0 30 5 30 15 0 11 -11 15 -43
15 -24 0 -47 -3 -50 -7z"/>
<path d="M5540 825 c0 -78 3 -95 15 -95 10 0 15 10 15 34 0 38 10 49 34 40 10
-4 16 -18 16 -40 0 -27 4 -34 20 -34 16 0 20 7 20 33 0 18 -4 37 -10 43 -6 6
-6 21 3 43 11 30 10 34 -12 52 -14 11 -39 19 -62 19 l-39 0 0 -95z m78 38 c-2
-20 -9 -29 -25 -31 -20 -3 -23 1 -23 27 0 27 4 31 26 31 22 0 25 -4 22 -27z"/>
<path d="M5726 912 c-2 -4 -11 -34 -19 -67 -30 -119 -29 -115 -7 -115 13 0 20
7 20 20 0 15 7 20 25 20 18 0 25 -5 25 -20 0 -13 7 -20 20 -20 24 0 24 -10 -1
99 -17 74 -24 91 -39 91 -10 0 -21 -3 -24 -8z m33 -94 c1 -10 -6 -18 -15 -18
-12 0 -15 6 -10 23 3 12 6 29 7 37 1 20 17 -18 18 -42z"/>
</g>
</svg>
